<?xml version="1.0" encoding="utf-8"?>
<!-- Generator: Adobe Illustrator 26.5.0, SVG Export Plug-In . SVG Version: 6.00 Build 0)  -->
<svg version="1.1" id="Layer_1" xmlns="http://www.w3.org/2000/svg" xmlns:xlink="http://www.w3.org/1999/xlink" x="0px" y="0px"
	 viewBox="0 0 512 512" style="enable-background:new 0 0 512 512;" xml:space="preserve">
<style type="text/css">
	.st0{fill:#781F19;}
	.st1{fill:#D6A64F;}
	.st2{fill:#FFFFFF;}
	.st3{fill:#1F1917;}
	.st4{fill:#BDA345;}
	.st5{fill:#D9261C;}
</style>
<g id="XMLID_1_">
	<path id="XMLID_2_" class="st0" d="M512,256c0,141.4-114.6,256-256,256S0,397.4,0,256S114.6,0,256,0S512,114.6,512,256"/>
	<path id="XMLID_3_" class="st1" d="M453.51,256c0,109.13-88.51,197.51-197.51,197.51c-109.13,0-197.51-88.51-197.51-197.51
		c0-109.13,88.51-197.51,197.51-197.51C365.13,58.49,453.51,146.87,453.51,256"/>
	<path id="XMLID_4_" class="st2" d="M453.51,256h-0.7c0,54.43-22.02,103.66-57.65,139.29s-84.87,57.65-139.29,57.65
		s-103.66-22.02-139.29-57.65S58.92,310.43,58.92,256s22.02-103.66,57.65-139.29s84.87-57.65,139.29-57.65
		s103.66,22.02,139.29,57.65S452.8,201.57,452.8,256L453.51,256l0.7,0c0-109.41-88.79-198.21-198.21-198.21S57.79,146.59,57.79,256
		S146.59,454.21,256,454.21S454.21,365.41,454.21,256L453.51,256L453.51,256z"/>
	<polyline id="XMLID_5_" class="st2" points="84.87,426.01 106.19,404.27 111.1,409.18 89.78,430.78 84.87,426.01 	"/>
	<path id="XMLID_6_" class="st2" d="M99.88,398.24l-23.57,19.08L71.26,411l4.63-11.92c1.4-3.37,3.23-7.15,4.91-10.38v-0.14
		c-2.81,2.81-6.03,5.47-9.54,8.42l-6.87,5.61l-3.93-4.91l23.57-19.08l4.49,5.61l-5.05,12.48c-1.4,3.51-3.23,7.43-5.05,10.8
		l0.14,0.14c3.09-2.67,6.31-5.47,10.1-8.56l7.15-5.75L99.88,398.24"/>
	<path id="XMLID_7_" class="st2" d="M71.26,368.22c-0.14-0.56-0.7-1.4-1.12-2.1c-3.09-5.47-8.14-7.29-14.45-3.65
		c-5.61,3.23-6.59,8-3.65,13.19c0.7,1.26,1.4,2.1,1.82,2.52L71.26,368.22L71.26,368.22z M53.16,386.45
		c-1.68-1.96-3.51-4.77-5.19-7.72c-2.95-5.05-3.93-8.84-3.51-12.34c0.42-3.93,2.81-7.57,7.43-10.24c5.05-2.95,9.54-3.09,13.19-1.82
		c3.93,1.4,7.43,5.05,10.38,10.24c1.82,3.09,2.81,5.47,3.51,7.01L53.16,386.45"/>
	<polyline id="XMLID_10_" class="st2" points="32.54,347.04 60.46,335.11 63.12,341.43 35.21,353.35 32.54,347.04 	"/>
	<path id="XMLID_11_" class="st2" d="M40.54,316.6l-5.61,3.65c-1.54,0.98-3.65,2.1-5.19,3.09v0.14c1.82-0.14,4.21-0.28,6.03-0.42
		h6.73L40.54,316.6L40.54,316.6z M47.69,322.49l8.14-0.14l1.96,6.87l-31.84-0.28l-2.52-8.56l26.51-17.67l2.1,7.15l-6.87,4.49
		L47.69,322.49"/>
	<path id="XMLID_14_" class="st2" d="M48.53,295.98l-30.16,3.93l-0.98-8l10.24-7.72c2.95-2.24,6.45-4.49,9.68-6.31v-0.14
		c-3.93,0.98-8,1.54-12.48,2.24l-8.7,1.12l-0.84-6.31l30.16-3.93l0.98,7.15l-10.8,8c-3.09,2.24-6.59,4.77-9.96,6.59v0.14
		c3.93-0.7,8.28-1.4,13.19-1.96l9.12-1.12L48.53,295.98"/>
	<polyline id="XMLID_15_" class="st2" points="15.15,242.39 45.45,243.66 45.17,250.53 14.87,249.27 15.15,242.39 	"/>
	<path id="XMLID_16_" class="st2" d="M45.87,234.96l-30.02-4.77l1.26-7.86l11.92-4.49c3.51-1.26,7.43-2.38,11.08-3.23v-0.14
		c-4.07-0.28-8.14-0.7-12.62-1.4l-8.7-1.4l0.98-6.17l30.02,4.77l-1.12,7.15l-12.62,4.63c-3.51,1.26-7.72,2.67-11.36,3.51v0.14
		c4.07,0.42,8.28,0.98,13.19,1.82l8.98,1.4L45.87,234.96"/>
	<path id="XMLID_17_" class="st2" d="M45.45,199.33c1.4-1.4,3.23-3.93,4.07-6.73c0.98-2.95,0.14-5.05-1.68-5.61
		c-1.82-0.56-3.23,0.42-5.61,3.65c-3.23,4.21-6.87,6.59-11.08,5.33c-4.91-1.54-7.43-6.87-5.19-13.75c0.98-3.37,2.38-5.47,3.79-6.87
		l4.77,3.09c-0.84,0.98-2.38,2.81-3.23,5.61c-0.84,2.81,0,4.63,1.54,5.05c1.82,0.56,3.23-0.7,5.75-4.07
		c3.51-4.49,6.87-6.03,11.08-4.77c4.91,1.54,7.86,6.45,5.33,14.45c-0.98,3.37-2.95,6.31-4.35,7.72L45.45,199.33"/>
	<polyline id="XMLID_18_" class="st2" points="40.82,160.33 37.31,167.77 32.12,165.38 41.94,144.2 47.13,146.59 43.63,154.16 
		65.93,164.54 63.12,170.71 40.82,160.33 	"/>
	<polyline id="XMLID_19_" class="st2" points="50.22,130.03 76.31,145.6 72.8,151.5 46.71,135.93 50.22,130.03 	"/>
	<polyline id="XMLID_20_" class="st2" points="64.67,118.81 59.76,125.4 55.13,121.9 69.01,103.1 73.64,106.61 68.73,113.2 
		88.51,127.93 84.44,133.4 64.67,118.81 	"/>
	<path id="XMLID_21_" class="st2" d="M80.8,90.2l12.34,12.34c3.79,3.65,7.01,4.21,9.54,1.68c2.52-2.52,2.1-5.75-1.68-9.54
		L88.65,82.34l4.77-4.91l12.06,12.06c6.59,6.59,6.45,13.05,0.98,18.8c-5.33,5.47-11.64,5.61-18.38-1.26L76.03,95.11L80.8,90.2"/>
	<polyline id="XMLID_22_" class="st2" points="111.52,70 105.07,74.91 101.56,70.42 120.21,56.25 123.72,60.88 116.99,65.93 
		131.86,85.57 126.39,89.64 111.52,70 	"/>
	<polyline id="XMLID_23_" class="st2" points="153.18,57.09 143.5,62.56 147.15,68.87 157.95,62.7 160.75,67.61 143.92,77.15 
		128.91,50.78 145.18,41.52 147.85,46.43 137.61,52.32 140.69,57.79 150.51,52.18 153.18,57.09 	"/>
	<path id="XMLID_24_" class="st2" d="M189.23,50.78c4.35-1.4,5.61-6.45,3.79-12.06c-1.68-5.19-5.61-8.84-10.1-7.43
		s-5.61,6.59-3.79,12.06C180.81,48.82,184.88,52.18,189.23,50.78L189.23,50.78L189.23,50.78z M190.63,55.97
		c-8.56,2.81-15.71-2.1-18.38-10.24c-2.81-8.7,0.7-16.97,9.12-19.64c8.84-2.95,15.85,2.24,18.52,10.1
		C202.98,45.73,199.19,53.3,190.63,55.97L190.63,55.97"/>
	<polyline id="XMLID_27_" class="st2" points="206.9,19.64 225.14,16.55 225.98,22.16 214.48,24.13 215.74,30.86 226.4,29.04 
		227.38,34.65 216.58,36.47 218.69,48.53 211.95,49.66 206.9,19.64 	"/>
	<polyline id="XMLID_28_" class="st2" points="256.14,20.48 248,20.34 248,14.59 271.43,15.01 271.29,20.76 263.01,20.62 
		262.59,45.31 255.72,45.17 256.14,20.48 	"/>
	<polyline id="XMLID_29_" class="st2" points="296.96,35.91 285.88,34.37 284.9,41.38 297.24,43.2 296.4,48.82 277.32,46.01 
		281.67,15.99 300.19,18.66 299.34,24.27 287.56,22.58 286.72,28.76 297.8,30.3 296.96,35.91 	"/>
	<path id="XMLID_30_" class="st2" d="M325.3,55.69c-1.26,0.28-4.35,0.14-7.86-0.84c-10.1-2.81-13.47-10.66-11.08-19.08
		c2.81-9.96,11.5-13.47,20.34-10.94c3.37,0.98,5.89,2.38,6.87,3.37l-2.81,4.77c-1.12-0.98-2.81-1.96-5.19-2.67
		c-5.19-1.54-10.24,0.56-12.06,7.01c-1.68,5.89,0.7,10.52,6.59,12.2c2.1,0.56,4.35,0.84,5.89,0.56L325.3,55.69"/>
	<polyline id="XMLID_31_" class="st2" points="350.83,34.09 346.06,44.75 356.3,49.52 361.21,38.86 367.38,41.66 354.75,69.3 
		348.58,66.49 353.77,54.99 343.53,50.22 338.2,61.72 332.03,58.92 344.65,31.28 350.83,34.09 	"/>
	<path id="XMLID_32_" class="st2" d="M362.47,73.5l16.83-25.25l6.73,4.49l-0.98,12.76c-0.28,3.65-0.98,7.86-1.68,11.36h0.14
		c1.82-3.51,4.07-7.01,6.59-10.94l4.91-7.29l5.19,3.51l-16.83,25.25l-6.03-4.07L378.46,70c0.28-3.79,0.84-8.14,1.54-11.78
		l-0.14-0.14c-2.1,3.51-4.35,7.15-7.15,11.22l-5.05,7.57L362.47,73.5"/>
	<path id="XMLID_33_" class="st2" d="M403.29,98.33c3.37,3.23,8.28,1.82,12.34-2.52c3.79-3.93,5.05-9.12,1.54-12.34
		c-3.51-3.23-8.56-1.68-12.48,2.52C400.9,89.92,399.78,95.11,403.29,98.33L403.29,98.33L403.29,98.33z M399.22,101.98
		c-6.59-6.17-5.75-14.73,0.14-21.04c6.17-6.59,15.15-7.57,21.6-1.54c6.87,6.31,5.75,15.01,0,21.04
		C414.23,107.87,405.81,108.15,399.22,101.98L399.22,101.98"/>
	<polyline id="XMLID_36_" class="st2" points="438.92,98.47 443.13,103.8 423.91,119.23 431.48,128.63 426.99,132.28 415.21,117.55 
		438.92,98.47 	"/>
	<path id="XMLID_37_" class="st2" d="M441.16,145.04c2.38,3.93,7.57,4.07,12.62,0.98c4.63-2.81,7.43-7.43,4.91-11.5
		c-2.38-4.07-7.72-3.93-12.62-0.98C441.16,136.49,438.78,141.12,441.16,145.04L441.16,145.04L441.16,145.04z M436.25,147.71
		c-4.63-7.72-1.54-15.71,5.89-20.2c7.86-4.63,16.69-3.23,21.32,4.49c4.77,8,1.4,15.99-5.75,20.34
		C449.16,157.39,440.88,155.28,436.25,147.71L436.25,147.71"/>
	<path id="XMLID_40_" class="st2" d="M458.13,189.79c-1.4-1.68-3.79-5.05-5.33-8.84c-2.1-5.19-2.24-9.4-0.84-13.05
		c1.4-3.51,4.63-6.45,8.7-8.14c9.4-3.65,17.53,0.98,21.18,10.24c1.4,3.65,1.82,6.73,1.82,8.42l-5.75,0.7
		c0.14-1.82-0.14-3.93-1.4-7.01c-2.1-5.33-6.73-8.14-12.91-5.75c-5.89,2.38-7.86,7.29-5.75,12.62c0.56,1.4,1.26,2.52,1.54,2.95
		l5.89-2.38l-1.68-4.35l5.05-1.96l4.21,10.52L458.13,189.79"/>
	<path id="XMLID_41_" class="st2" d="M460.66,204.94l12.06-2.81l15.29-13.33l1.82,7.72l-6.45,4.63c-1.96,1.4-3.37,2.38-5.19,3.65
		v0.14c1.96,0.28,3.93,0.56,6.17,0.98l7.86,1.4l1.68,7.57l-19.5-5.75l-12.34,2.81L460.66,204.94"/>
	<path id="XMLID_42_" class="st2" d="M478.61,264.7c3.65-0.14,8-0.42,12.48-0.42v-0.14c-3.93-0.98-8.28-2.1-11.78-3.23l-11.92-3.51
		l-0.14-5.33l11.64-3.37c3.65-0.98,7.86-2.1,11.92-2.95v-0.14c-4.07-0.14-8.84-0.14-12.62-0.28l-11.5-0.42l-0.14-6.31l30.44,1.4
		l0.14,9.12l-10.1,3.09c-3.51,0.98-7.29,1.96-10.8,2.81v0.14c3.51,0.7,7.57,1.68,10.94,2.67l10.1,3.09l0.14,8.98l-30.3,2.1
		l-0.14-6.73L478.61,264.7"/>
	<path id="XMLID_43_" class="st2" d="M476.09,296.68l6.73-0.84c1.82-0.14,4.21-0.28,6.03-0.42v-0.14c-1.68-0.7-3.93-1.54-5.61-2.24
		l-6.03-2.95L476.09,296.68L476.09,296.68z M472.3,288.26l-7.29-3.37l1.26-7.01l28.34,14.31l-1.54,8.7l-31.56,4.21l1.26-7.29
		l8.14-0.98L472.3,288.26"/>
	<path id="XMLID_46_" class="st2" d="M462.48,319.82c-0.28,0.56-0.7,1.4-0.84,2.24c-2.1,5.89-0.14,10.94,6.73,13.19
		c6.17,2.1,10.38-0.42,12.2-6.03c0.42-1.4,0.7-2.38,0.7-3.09L462.48,319.82L462.48,319.82z M488.15,321.37
		c-0.42,2.52-1.26,5.75-2.38,8.98c-1.82,5.47-3.93,8.84-7.01,10.8c-3.23,2.24-7.43,2.95-12.62,1.12c-5.47-1.82-8.56-5.19-10.1-8.7
		c-1.54-3.93-1.12-8.98,0.84-14.59c1.12-3.37,2.24-5.75,2.95-7.29L488.15,321.37"/>
	<path id="XMLID_49_" class="st2" d="M459.96,357.56l-1.26,2.38c-1.54,3.09-0.98,5.61,1.4,6.87s4.63,0.28,6.03-2.52
		c0.7-1.54,1.12-2.38,1.26-2.81L459.96,357.56L459.96,357.56z M474.55,357.56c-0.7,2.1-1.96,5.19-3.65,8.42
		c-2.1,4.07-4.07,6.45-6.73,7.57c-2.1,0.98-4.49,0.84-7.01-0.42c-3.37-1.82-4.49-5.47-4.07-8.14h-0.14
		c-1.68,1.54-4.07,1.54-6.87,0.98c-3.51-0.7-7.43-1.82-8.7-1.82l3.23-6.17c0.98,0,3.51,0.42,7.29,1.4s5.33,0.28,6.59-2.24l0.98-1.82
		l-10.66-5.47l3.09-6.03L474.55,357.56"/>
	<path id="XMLID_52_" class="st2" d="M435.69,389.54l6.31,2.24c1.68,0.7,3.93,1.54,5.61,2.24l0.14-0.14
		c-1.26-1.4-2.81-3.09-3.93-4.49l-4.21-5.33L435.69,389.54z M435.97,380.28l-5.05-6.31l4.21-5.75l19.22,25.39l-5.33,7.29
		l-30.16-10.1l4.35-6.03l7.72,2.67L435.97,380.28"/>
	<path id="XMLID_55_" class="st2" d="M419.14,400.62c-1.96,0.7-4.63,2.1-6.59,4.21c-2.24,2.24-2.38,4.35-0.98,5.75
		c1.26,1.26,3.09,0.98,6.59-0.7c4.77-2.38,9.12-2.81,12.34,0.28c3.79,3.65,3.51,9.4-1.4,14.59c-2.38,2.52-4.63,3.79-6.45,4.49
		l-2.95-4.91c1.26-0.42,3.37-1.4,5.47-3.51c2.1-2.1,2.1-4.21,0.98-5.19c-1.4-1.4-3.23-0.7-7.01,1.12c-5.19,2.52-8.84,2.38-12.06-0.7
		c-3.65-3.51-4.07-9.26,1.68-15.29c2.38-2.52,5.47-4.35,7.29-4.91L419.14,400.62"/>
	<path id="XMLID_56_" class="st2" d="M399.08,436.95c0,2.52-1.96,4.49-4.49,4.49c-2.52,0-4.49-1.96-4.49-4.49
		c0-2.52,1.96-4.49,4.49-4.49C396.98,432.46,399.08,434.43,399.08,436.95"/>
	<path id="XMLID_57_" class="st2" d="M121.9,436.95c0,2.52-1.96,4.49-4.49,4.49c-2.52,0-4.49-1.96-4.49-4.49
		c0-2.52,1.96-4.49,4.49-4.49C119.93,432.46,121.9,434.43,121.9,436.95"/>
	<polyline id="XMLID_58_" class="st2" points="148.55,376.92 220.37,389.82 212.66,398.8 283.07,404.83 276.06,410.58 
		345.64,413.67 253.62,422.79 265.12,412.55 192.18,405.11 204.38,396.13 148.55,376.92 	"/>
	<path id="XMLID_59_" class="st2" d="M140.27,439.34l6.31,3.65c0-1.26,0.14-2.38,0.42-3.51c0.28-1.12,0.7-2.1,1.26-3.09
		c0.84-1.54,2.24-2.38,4.07-2.81c1.82-0.42,3.51,0,5.19,0.98c2.1,1.26,3.79,3.37,5.19,6.59c1.4,3.23,2.24,7.01,2.52,11.36
		l-1.26,0.14c-0.28-3.23-1.12-6.03-2.38-8.56c-1.26-2.52-3.09-4.35-5.19-5.61c-1.12-0.7-2.52-0.7-3.93-0.14s-2.67,1.54-3.51,3.09
		c-0.7,1.12-0.98,1.82-1.12,2.38l2.52,1.4l0.42,3.93l-3.37-1.96l-11.64,19.92l-2.24-4.35l10.38-17.67l-3.23-1.82L140.27,439.34"/>
	<path id="XMLID_60_" class="st2" d="M156.69,455.89c-0.28,1.26-0.84,2.52-1.4,3.93c0.42,0.98,0.98,1.82,1.54,2.38
		c0.56,0.7,1.12,1.12,1.82,1.54c0.7,0.28,1.4,0.56,2.24,0.42c0.84,0,1.68-0.14,2.38-0.56l3.23-6.59l-9.4-4.63
		C157.11,453.51,157.11,454.63,156.69,455.89L156.69,455.89z M157.53,475.39l3.65-7.57c-0.28,0-0.7,0-1.12-0.14
		c-0.42-0.14-0.98-0.42-1.68-0.7c-0.98-0.42-1.82-1.26-2.67-2.38c-0.7-1.12-1.26-2.38-1.68-3.79c-0.84,0.84-1.82,1.54-2.81,1.96
		c-0.98,0.42-1.96,0.56-2.95,0.42c0.7,3.65,2.1,7.29,4.21,11.08l-2.52,1.12c-3.79-10.66-5.05-17.11-4.07-19.36
		c0.28-0.56,0.7-0.98,1.26-1.26c0.56-0.28,0.98-0.28,1.4,0c0.56,0.28,0.84,0.7,1.12,1.26s0.42,1.26,0.42,2.1
		c0.84,0,1.68-0.28,2.52-0.7c0.7-0.42,1.26-1.12,1.68-1.96c0.28-0.7,0.56-1.4,0.7-2.1c0.14-0.7,0.14-1.26,0-1.96l-7.01-3.37
		l-0.7-3.79l25.53,12.34l0.7,3.79l-3.51-1.68l-10.1,20.76L157.53,475.39"/>
	<path id="XMLID_63_" class="st2" d="M170.29,455.33l6.87,2.67c-0.14-1.12-0.28-2.38-0.14-3.51c0.14-1.12,0.42-2.24,0.7-3.23
		c0.7-1.68,1.82-2.81,3.51-3.37c1.68-0.56,3.51-0.56,5.33,0.14c2.24,0.84,4.35,2.81,6.17,5.61c1.82,2.95,3.23,6.45,4.35,10.8
		l-1.26,0.42c-0.84-3.09-1.96-5.75-3.65-8c-1.68-2.24-3.65-3.79-5.89-4.63c-1.26-0.56-2.52-0.42-3.93,0.42
		c-1.4,0.84-2.38,1.96-2.95,3.65c-0.42,1.12-0.7,1.96-0.7,2.52l2.67,0.98l0.98,3.79l-3.65-1.4l-8.42,21.46l-2.95-3.93l7.43-19.08
		l-3.51-1.4L170.29,455.33"/>
	<path id="XMLID_64_" class="st2" d="M183.9,486.19c0.28,0.42,0.7,0.84,1.26,0.98c1.12,0.28,2.38,0.28,3.65-0.14
		c1.26-0.42,2.38-1.26,3.37-2.38c-2.24-0.7-3.79-1.4-4.49-2.24c-0.98,0-1.82,0.14-2.52,0.56c-0.7,0.42-1.26,0.98-1.4,1.68
		C183.62,485.21,183.62,485.77,183.9,486.19L183.9,486.19z M205.64,467.39l1.4,3.65l-4.49-1.4l-2.1,7.01l-9.82-2.95
		c-0.7-0.28-1.54-0.14-2.24,0.28c-0.7,0.42-1.12,1.12-1.4,1.82c-0.28,0.84-0.14,1.82,0.42,2.67c0.56,0.84,1.4,1.4,2.52,1.82
		l3.09,0.7c0-0.28,0-0.42-0.14-0.7c0-0.28,0-0.42,0-0.56c0.14-0.7,0.7-1.12,1.4-1.4c0.7-0.28,1.54-0.28,2.38,0
		c0.84,0.28,1.54,0.84,1.96,1.68c0.42,0.84,0.56,1.82,0.14,2.81c-0.14,0.7-0.56,1.12-1.26,1.54c-0.56,0.42-1.4,0.7-2.24,0.7
		l3.93,7.72l-2.38,0.84l-2.1-5.75c-1.26,0.98-2.67,1.68-4.07,1.96c-1.4,0.28-2.81,0.28-4.21-0.14c-1.54-0.42-3.09-1.54-4.35-3.09
		c-1.26-1.54-1.82-2.81-1.54-3.93c0.14-0.42,0.28-0.7,0.42-0.98c0.14-0.28,0.42-0.56,0.7-0.84c-1.68-0.7-2.95-1.54-3.79-2.81
		c-0.84-1.26-1.12-2.52-0.7-3.65c0.14-0.42,0.42-0.98,0.98-1.54c0.56-0.56,1.26-1.12,2.1-1.68l2.67,4.07
		c-0.56,0.28-1.12,0.56-1.54,0.84c-0.42,0.28-0.56,0.7-0.7,0.98c-0.14,0.42,0,0.98,0.42,1.4c0.42,0.56,0.98,0.84,1.68,1.12
		l2.52-0.84c-0.56-0.98-0.98-1.96-1.12-2.95c-0.14-1.12-0.14-2.1,0.14-3.09c0.42-1.12,1.26-1.96,2.52-2.52
		c1.4-0.56,2.81-0.56,4.49,0l5.75,1.68l0.98-3.51l-18.94-5.61l-1.4-3.65L205.64,467.39"/>
	<path id="XMLID_67_" class="st2" d="M207.75,472.72c0.56,0.7,1.4,1.26,2.52,1.54l0.84-4.35c0.14-0.42,0-0.98-0.14-1.26
		c-0.14-0.42-0.28-0.56-0.56-0.7c-0.84-0.14-1.54,0-2.1,0.42c-0.7,0.42-0.98,1.12-1.12,1.82
		C206.9,471.18,207.18,471.88,207.75,472.72L207.75,472.72z M216.02,469.22l12.62,2.24l1.68,3.51l-3.79-0.7l-4.07,22.72l-3.65-3.37
		l1.26-6.73l-7.43-1.4l-0.42,2.52c-0.14,0.56-0.42,0.98-0.7,1.4c-0.42,0.28-0.84,0.42-1.12,0.42c-1.26-0.28-2.52-1.26-3.65-3.23
		c-1.26-1.96-1.68-3.51-1.54-4.91c0-0.28,0.28-0.56,0.7-0.84c0.42-0.14,0.84-0.28,1.26-0.14l2.1,0.42l0.84-4.91
		c-1.96-0.98-3.51-2.1-4.49-3.79c-0.98-1.54-1.4-3.09-1.12-4.77c0.14-0.98,0.7-1.82,1.68-2.38c0.98-0.56,1.96-0.7,3.09-0.56
		c1.54,0.28,2.95,1.4,4.21,3.37c1.26,1.96,1.68,3.79,1.4,5.33l-1.54,8.28l7.43,1.4l1.82-9.82l-4.91-0.84L216.02,469.22"/>
	<path id="XMLID_70_" class="st2" d="M222.47,458.7c1.12-0.84,2.24-1.12,3.65-0.98c1.4,0.14,2.67,0.7,3.65,1.54
		c1.12,0.84,1.82,1.96,2.24,3.37l-0.84,0.7c-0.42-0.7-0.84-1.12-1.4-1.54c-0.56-0.42-1.12-0.56-1.68-0.7
		c-1.26-0.14-2.24,0.14-3.23,0.98c-0.98,0.7-1.54,1.68-1.68,2.95c-0.14,0.7,0,1.4,0.28,2.24c0.28,0.84,0.84,1.68,1.4,2.52l-1.12,0.7
		c-1.12-1.26-2.1-2.67-2.52-4.21c-0.56-1.54-0.7-2.95-0.56-4.49C220.65,460.52,221.35,459.4,222.47,458.7"/>
	<path id="XMLID_71_" class="st2" d="M232.29,488.71c0.56,0.56,1.4,0.98,2.38,0.98c1.26,0.14,2.67-0.14,4.21-0.7
		c1.54-0.56,2.95-1.26,4.49-2.38c-0.84-1.12-1.68-2.1-2.67-2.67c-0.98-0.7-1.96-0.98-2.95-1.12c-1.54-0.14-2.95,0.14-4.21,0.98
		c-1.12,0.7-1.82,1.68-1.82,2.81C231.45,487.45,231.59,488.15,232.29,488.71L232.29,488.71z M249.97,473.14l2.1,3.37l-3.93-0.28
		l-1.68,23l-3.93-2.95l0.42-5.19c-1.12,0.7-2.1,1.4-3.23,1.68c-1.12,0.42-2.1,0.56-3.23,0.42c-1.96-0.14-3.79-1.26-5.75-3.09
		c-1.82-1.96-2.67-3.79-2.52-5.61c0.14-1.54,0.84-2.81,2.24-3.79s2.95-1.4,4.77-1.26c1.54,0.14,3.09,0.7,4.63,1.68
		c1.54,0.98,2.67,2.24,3.65,3.93l0.7-9.12l-16.69-1.26l-2.1-3.37L249.97,473.14"/>
	<path id="XMLID_74_" class="st2" d="M247.44,472.86l7.29,0.14c-0.56-1.12-0.98-2.1-1.26-3.23c-0.28-1.12-0.42-2.24-0.42-3.37
		c0-1.68,0.7-3.23,2.1-4.35c1.4-1.12,3.09-1.82,5.05-1.68c2.38,0,5.05,1.12,7.72,3.23c2.81,2.1,5.33,4.91,7.86,8.56l-1.12,0.7
		c-1.82-2.67-3.93-4.77-6.31-6.17c-2.38-1.54-4.77-2.24-7.15-2.38c-1.4,0-2.52,0.56-3.51,1.82c-0.98,1.26-1.54,2.67-1.54,4.35
		c0,1.26,0,2.1,0.28,2.67h2.81l2.24,3.23l-3.93-0.14l-0.42,23l-4.07-2.67l0.28-20.34h-3.65L247.44,472.86"/>
	<path id="XMLID_75_" class="st2" d="M280.69,471.74l2.52,2.95l-3.93,0.28l1.54,23l-4.35-2.38l-0.7-11.5l-8.14,0.56
		c-0.7,0-1.26,0.42-1.82,1.12c-0.42,0.7-0.7,1.54-0.56,2.38c0.14,1.4,0.7,2.95,1.68,4.35c0.98,1.54,2.38,2.95,4.21,4.21l-1.54,1.4
		c-2.52-2.24-4.63-4.49-6.03-6.45c-1.4-2.1-2.24-3.79-2.38-5.33c-0.14-1.54,0.28-2.81,1.12-3.93c0.84-1.12,1.96-1.82,3.23-1.82
		l9.96-0.7l-0.28-4.77l-16.41,1.12l-2.52-2.95L280.69,471.74"/>
	<path id="XMLID_76_" class="st2" d="M296.96,485.07c0.56,0.42,1.26,0.56,1.96,0.42c1.12-0.28,2.1-0.7,3.09-1.54
		s1.82-1.82,2.38-3.09c-0.56-0.7-1.26-1.26-2.1-1.54c-0.84-0.28-1.54-0.42-2.24-0.28c-1.4,0.28-2.38,0.84-3.23,1.68
		c-0.84,0.84-1.12,1.68-0.98,2.67C295.98,484.23,296.4,484.79,296.96,485.07L296.96,485.07z M315.9,465.29l2.95,2.67l-12.34,2.52
		l1.4,6.87c0.42-0.7,0.84-1.26,1.4-1.68c0.56-0.42,1.26-0.7,2.1-0.84c1.4-0.28,3.09,0.42,4.91,2.24c1.82,1.82,2.95,3.65,3.37,5.75
		c0.14,0.98,0.14,1.96,0,3.09c-0.14,1.12-0.56,2.38-1.12,3.51l-3.93-2.38c0.84-1.26,1.4-2.38,1.68-3.51
		c0.28-1.12,0.42-2.1,0.28-3.09c-0.14-0.84-0.56-1.54-1.26-1.96c-0.7-0.42-1.4-0.7-2.24-0.42c-0.7,0.14-1.4,0.56-2.24,1.26
		c-0.7,0.7-1.4,1.68-2.1,2.81l2.24,11.08l-4.63-1.68l-1.12-5.61c-0.42,0.7-0.98,1.26-1.68,1.68c-0.7,0.42-1.4,0.84-2.24,0.98
		c-1.54,0.28-3.23-0.28-5.19-1.68c-1.96-1.4-3.09-3.09-3.37-4.77c-0.28-1.26,0-2.38,0.84-3.37c0.84-1.12,1.96-1.68,3.37-1.96
		c1.12-0.28,2.24-0.14,3.51,0.42c1.26,0.42,2.38,1.26,3.51,2.24l-1.54-7.72l-12.91,2.67l-2.95-2.67L315.9,465.29"/>
	<polyline id="XMLID_79_" class="st2" points="314.35,492.08 314.49,492.08 314.49,492.08 314.35,492.08 314.35,492.08 	"/>
	<path id="XMLID_80_" class="st2" d="M327.26,474.83l7.43-2.52l-3.23-9.4l-7.43,2.52L327.26,474.83L327.26,474.83z M335.96,457.99
		l3.23,2.24l-3.65,1.26l7.43,21.74l-4.77-1.12l-1.96-5.89l-7.43,2.52l0.84,2.52c0.14,0.56,0.14,1.12,0,1.54
		c-0.14,0.42-0.42,0.84-0.84,0.98c-1.26,0.42-2.95,0.14-5.05-0.98c-2.1-1.12-3.37-2.38-3.79-3.65c-0.14-0.42-0.14-0.84,0.14-1.26
		c0.28-0.42,0.56-0.7,1.12-0.84l2.24-0.7l-3.23-9.4l-5.19,1.82l-3.23-2.24L335.96,457.99"/>
	<path id="XMLID_83_" class="st2" d="M324.31,449.86c0.56-1.26,1.54-2.1,2.81-2.52c1.26-0.56,2.67-0.7,4.07-0.42
		c1.4,0.28,2.52,0.84,3.65,1.82l-0.42,0.98c-0.7-0.42-1.4-0.56-1.96-0.7c-0.7-0.14-1.26,0-1.82,0.28c-1.12,0.42-1.96,1.26-2.38,2.38
		c-0.42,1.12-0.56,2.24,0,3.37c0.28,0.56,0.7,1.26,1.4,1.82c0.7,0.56,1.54,1.12,2.52,1.54l-0.7,1.12c-1.68-0.56-3.09-1.4-4.35-2.38
		c-1.26-1.12-2.1-2.24-2.67-3.65C323.61,452.24,323.75,450.98,324.31,449.86"/>
	<path id="XMLID_84_" class="st2" d="M359.38,447.19l3.51,1.82l-3.51,1.68l9.82,20.76l-4.91-0.56l-4.77-9.96l-6.59,3.09
		c1.4,0.42,2.81,0.98,3.79,1.82c1.12,0.84,1.96,1.68,2.38,2.81c0.56,1.12,0.56,2.38,0.14,3.65c-0.56,1.26-1.4,2.1-2.52,2.81
		c-2.1,0.98-4.63,0.7-7.72-0.7c-3.09-1.4-6.03-3.79-8.84-7.15l1.12-1.12c1.96,2.38,4.07,3.93,6.31,5.05
		c2.24,0.98,4.07,1.12,5.61,0.42c0.7-0.28,1.12-0.84,1.26-1.54c0.28-0.7,0.14-1.4-0.14-2.24c-0.56-1.12-1.54-2.1-3.09-2.95
		s-3.51-1.4-5.75-1.82l12.34-5.89l-2.24-4.77l-19.36,9.12l-3.51-1.82L359.38,447.19"/>
	<polyline id="XMLID_85_" class="st2" points="366.68,442.56 370.32,444.11 366.96,446.07 378.46,465.99 373.55,465.85 
		363.31,448.18 360.08,450 356.44,448.46 366.68,442.56 	"/>
	<path id="XMLID_86_" class="st2" d="M115.73,286.86c0,6.59,15.43,9.96,19.5,11.08c17.25,4.49,35.21,6.59,53.02,7.72
		c16.41,1.12,36.47-1.54,52.18-5.61c-9.26-12.34-18.24-24.69-24.69-38.86C157.11,265.12,115.73,276.9,115.73,286.86z M296.26,261.05
		c-6.45,14.03-15.43,26.51-24.69,38.86c15.85,4.07,35.77,6.73,52.18,5.61c17.81-1.26,35.77-3.37,53.02-7.72
		c4.07-0.98,19.5-4.35,19.5-11.08C396.27,276.76,354.89,264.98,296.26,261.05"/>
	<path id="XMLID_89_" class="st3" d="M115.73,286.86h-0.7c0,1.96,1.12,3.51,2.67,4.91c2.38,1.96,5.89,3.51,9.26,4.63
		c3.37,1.12,6.45,1.82,8,2.24c17.39,4.49,35.35,6.59,53.16,7.86c2.67,0.14,5.33,0.28,8,0.28c14.73,0,31-2.52,44.47-5.89l0.98-0.28
		l-0.56-0.7c-9.26-12.34-18.24-24.69-24.55-38.72l-0.14-0.42h-0.42c-29.32,1.96-54.43,5.89-72.1,10.52
		c-8.84,2.38-15.99,4.91-20.76,7.43c-2.38,1.26-4.35,2.67-5.61,3.93c-1.26,1.4-2.1,2.81-2.1,4.21L115.73,286.86l0.7,0
		c0-0.98,0.56-2.1,1.68-3.37c2.1-2.1,6.03-4.35,11.64-6.59c16.69-6.59,47.69-12.48,86.13-15.01v-0.7l-0.56,0.28
		c6.45,14.17,15.43,26.51,24.69,38.86l0.56-0.42l-0.14-0.56c-13.19,3.51-29.46,5.89-44.05,5.89c-2.67,0-5.33-0.14-8-0.28
		c-17.67-1.26-35.63-3.37-52.88-7.72c-1.96-0.56-6.87-1.68-11.22-3.37c-2.1-0.84-4.21-1.96-5.61-3.09c-1.4-1.26-2.24-2.52-2.24-3.93
		L115.73,286.86L115.73,286.86z M296.26,261.05l-0.56-0.28c-6.45,14.03-15.29,26.37-24.55,38.72l-0.56,0.7l0.98,0.28
		c13.33,3.51,29.74,5.89,44.47,5.89c2.81,0,5.47-0.14,8-0.28c17.81-1.26,35.77-3.37,53.16-7.86c1.96-0.56,6.87-1.68,11.36-3.51
		c2.24-0.98,4.35-1.96,5.89-3.37c1.54-1.26,2.67-2.95,2.67-4.91c0-1.54-0.7-2.95-2.1-4.21c-2.24-2.38-6.45-4.63-12.06-6.87
		c-16.97-6.59-47.97-12.62-86.55-15.15h-0.42l-0.14,0.42L296.26,261.05v0.7c29.32,1.96,54.29,5.89,71.82,10.52
		c8.84,2.38,15.85,4.91,20.48,7.43c2.38,1.26,4.21,2.52,5.33,3.79c1.12,1.26,1.68,2.38,1.68,3.37c0,1.4-0.84,2.67-2.24,3.93
		c-2.1,1.82-5.61,3.23-8.84,4.35c-3.23,1.12-6.31,1.82-7.86,2.24c-17.25,4.35-35.21,6.59-52.88,7.72c-2.52,0.14-5.19,0.28-8,0.28
		c-14.59,0-30.86-2.38-44.05-5.89l-0.14,0.56l0.56,0.42c9.26-12.34,18.24-24.83,24.69-38.86L296.26,261.05v0.7V261.05z"/>
	<path id="XMLID_92_" class="st2" d="M240.43,300.05c-9.26-12.34-18.1-24.83-24.55-38.86c-0.42-1.12-0.98-2.1-1.4-3.23
		c-3.23-7.72-5.75-15.43-7.29-23c-6.73-34.09,4.07-68.59,22.86-96.93c10.94-16.55,22.72-33.39,25.67-53.44h0.7
		c2.95,20.06,14.73,36.89,25.67,53.44c18.8,28.34,29.6,62.84,22.86,96.93c-1.54,7.57-4.07,15.43-7.29,23
		c-0.42,1.12-0.98,2.1-1.4,3.23c-6.45,14.03-15.43,26.51-24.69,38.86c-5.75-1.54-11.08-3.23-15.29-5.05
		c-4.21,1.82-9.54,3.51-15.29,5.05H240.43"/>
	<path id="XMLID_93_" class="st3" d="M240.43,300.05l0.56-0.42c-9.26-12.2-18.1-24.83-24.41-38.72c-0.56-1.12-0.98-2.1-1.4-3.23
		c-3.23-7.57-5.75-15.43-7.29-23c-1.4-6.87-1.96-13.89-1.96-20.76c0-26.93,9.82-53.3,24.83-75.75
		c10.94-16.55,22.86-33.39,25.81-53.72l-0.7-0.14v0.7h0.7v-0.7l-0.7,0.14c3.09,20.34,14.87,37.17,25.81,53.72
		c15.01,22.44,24.83,48.82,24.83,75.75c0,6.87-0.7,13.75-1.96,20.76c-1.54,7.57-4.07,15.29-7.29,23c-0.42,1.12-0.98,2.1-1.4,3.23
		c-6.45,14.03-15.29,26.37-24.55,38.72l0.56,0.42l0.14-0.56c-5.75-1.54-10.94-3.23-15.15-4.91l-0.28-0.14l-0.28,0.14
		c-4.21,1.82-9.4,3.51-15.29,4.91l0.14,0.56l-0.14-0.7h-0.42h-0.56v0.56h0.42l0.56-0.42L240.43,300.05h0.7l0,0H240.43l0.14,0.7h0.42
		l0,0l0,0c5.89-1.54,11.08-3.23,15.43-5.05l-0.28-0.56l-0.28,0.56c4.35,1.82,9.54,3.51,15.43,5.05l0.42,0.14l0.28-0.28
		c9.26-12.34,18.24-24.83,24.69-38.86c0.42-1.12,0.98-2.1,1.4-3.23c3.23-7.72,5.89-15.57,7.29-23.15c1.4-7.01,2.1-14.03,2.1-20.9
		c0-27.21-9.96-53.87-24.97-76.45c-11.08-16.55-22.72-33.39-25.67-53.3l-0.14-0.56h-1.26h-0.56l-0.14,0.56
		c-2.95,19.92-14.59,36.75-25.67,53.3c-15.01,22.58-24.97,49.24-24.97,76.45c0,7.01,0.7,14.03,2.1,21.04
		c1.54,7.57,4.07,15.57,7.29,23.15c0.42,1.12,0.98,2.24,1.4,3.23c6.45,14.03,15.43,26.65,24.55,39l1.12,1.54v-1.96h-0.14V300.05z"/>
	<path id="XMLID_94_" class="st0" d="M240.43,300.05c-15.85,4.07-35.77,6.73-52.18,5.61c-17.81-1.26-35.77-3.37-53.02-7.72
		c-3.65-0.98-16.69-3.79-19.08-9.26l0,0c13.47,49.1,70.98,86.13,139.99,86.13s126.53-36.89,139.85-86.13h-0.14
		c-2.52,5.33-15.43,8.14-19.08,9.12c-17.25,4.49-35.21,6.59-53.02,7.72c-16.41,1.12-36.47-1.54-52.18-5.61
		c-5.75-1.54-11.08-3.23-15.29-5.05c-4.21,1.82-9.54,3.51-15.29,5.05L240.43,300.05L240.43,300.05L240.43,300.05z"/>
	<path id="XMLID_95_" class="st3" d="M240.29,299.48c-13.19,3.51-29.46,5.89-44.05,5.89c-2.67,0-5.33-0.14-8-0.28
		c-17.67-1.26-35.63-3.37-52.88-7.72c-1.82-0.42-6.03-1.4-9.96-2.95c-1.96-0.7-3.93-1.68-5.47-2.67c-1.54-0.98-2.67-2.1-3.23-3.37
		l-0.14-0.42h-0.42h-0.84l0.28,0.84c13.47,49.52,71.4,86.55,140.55,86.55s126.95-37.03,140.55-86.55l0.28-0.84h-0.98h-0.42
		l-0.14,0.42c-0.56,1.12-1.82,2.24-3.37,3.23c-2.38,1.54-5.47,2.67-8.42,3.65c-2.95,0.84-5.47,1.54-6.87,1.82
		c-17.25,4.35-35.21,6.59-52.88,7.72c-2.52,0.14-5.19,0.28-8,0.28c-14.59,0-30.86-2.38-44.05-5.89c-5.75-1.54-10.94-3.23-15.15-4.91
		l-0.28-0.14l-0.28,0.14c-4.21,1.82-9.4,3.51-15.29,4.91l0.14,0.56l-0.14-0.7L240.29,299.48l0.28,1.12h0.42l0,0l0,0
		c5.89-1.54,11.08-3.23,15.43-5.05l-0.28-0.56l-0.28,0.56c4.35,1.82,9.54,3.51,15.43,5.05c13.33,3.51,29.74,5.89,44.47,5.89
		c2.81,0,5.47-0.14,8-0.28c17.81-1.26,35.77-3.37,53.16-7.86c1.82-0.42,5.89-1.4,9.96-2.95c1.96-0.7,4.07-1.68,5.75-2.67
		c1.68-1.12,3.09-2.24,3.79-3.79l-0.56-0.28v0.7h0.14v-0.7l-0.56-0.14c-13.33,48.82-70.56,85.57-139.29,85.57
		s-126.11-36.89-139.29-85.57l-0.56,0.14v0.7l0,0v-0.7l-0.56,0.28c0.7,1.54,2.1,2.81,3.79,3.93c2.52,1.68,5.75,2.81,8.7,3.79
		c2.95,0.98,5.61,1.54,7.01,1.96c17.39,4.49,35.35,6.59,53.16,7.86c2.67,0.14,5.33,0.28,8,0.28c14.73,0,31-2.52,44.47-5.89
		L240.29,299.48L240.29,299.48z"/>
	<path id="XMLID_96_" class="st4" d="M258.52,258.81c-1.12,1.12-2.1,2.38-2.1,3.37h-0.14c0-1.12-1.12-2.38-2.24-3.51v36.61h1.26
		c0.28-0.14,0.7-0.28,0.98-0.42c0.28,0.14,0.56,0.28,0.98,0.42h1.4v-36.47"/>
	<path id="XMLID_97_" class="st3" d="M258.52,258.81l-0.42-0.42c-0.56,0.56-1.12,1.12-1.54,1.82c-0.42,0.56-0.7,1.26-0.7,1.96h0.7
		v-0.7h-0.14v0.7h0.7c0-0.7-0.42-1.4-0.84-2.1c-0.42-0.7-0.98-1.26-1.68-1.96l-1.12-1.12v38.86h1.96h0.14h0.14
		c0.28-0.14,0.56-0.28,0.98-0.42l-0.28-0.56l-0.28,0.56c0.28,0.14,0.7,0.28,0.98,0.42h0.14h1.54h0.7v-38.72l-1.12,1.12
		L258.52,258.81h-0.7v35.91h-0.7v0.7l0.28-0.56c-0.28-0.14-0.7-0.28-0.98-0.42l-0.28-0.14l-0.28,0.14
		c-0.28,0.14-0.56,0.28-0.98,0.42l0.28,0.56v-0.7h-0.56v-36.05h-0.7l-0.42,0.42c0.56,0.56,1.12,1.12,1.54,1.68
		c0.42,0.56,0.56,1.12,0.56,1.4v0.56h0.7h0.56v-0.56c0-0.28,0.14-0.84,0.56-1.26c0.42-0.56,0.84-1.12,1.4-1.68L258.52,258.81h-0.7
		H258.52z"/>
	<path id="XMLID_98_" class="st5" d="M256.84,232.57h-0.98c-5.05,0-9.26,3.65-10.38,8.7c-1.4,6.59,1.54,10.8,6.03,15.01
		c1.12,1.12,4.77,3.93,4.77,5.89h0.14c0.14-1.96,3.65-4.77,4.77-5.89c4.49-4.21,7.43-8.42,6.03-15.01
		C266.1,236.08,261.89,232.57,256.84,232.57h-0.98H256.84z"/>
	<path id="XMLID_99_" class="st3" d="M256.84,231.87h-0.98c-5.33,0-9.82,3.93-11.08,9.26c-0.28,1.12-0.42,2.24-0.42,3.37
		c0,2.52,0.7,4.77,1.96,6.73c1.12,1.96,2.81,3.79,4.77,5.61c0.56,0.56,1.82,1.54,2.81,2.67c0.56,0.56,0.98,1.12,1.26,1.54
		c0.28,0.56,0.56,0.98,0.56,1.26c0,0.28,0.28,0.56,0.7,0.56h0.14c0.28,0,0.56-0.28,0.7-0.56c0-0.28,0.14-0.7,0.56-1.26
		c0.42-0.7,1.26-1.54,2.1-2.38c0.84-0.7,1.54-1.4,1.96-1.82c1.82-1.82,3.51-3.51,4.77-5.61c1.12-1.96,1.96-4.21,1.96-6.73
		c0-1.12-0.14-2.24-0.42-3.37C266.66,235.8,262.31,231.87,256.84,231.87h-0.98v1.26h0.98c4.77,0,8.7,3.37,9.82,8.28
		c0.28,1.12,0.42,2.1,0.42,3.09c0,2.24-0.7,4.21-1.68,6.03c-1.12,1.82-2.67,3.51-4.49,5.33c-0.56,0.56-1.82,1.54-2.81,2.67
		c-0.56,0.56-0.98,1.12-1.4,1.82c-0.42,0.56-0.7,1.26-0.7,1.96h0.7v-0.7h-0.14v0.7h0.7c0-0.7-0.28-1.26-0.7-1.96
		c-0.56-0.84-1.4-1.82-2.24-2.52c-0.84-0.84-1.54-1.4-1.96-1.82c-1.82-1.68-3.37-3.51-4.49-5.33c-1.12-1.82-1.68-3.79-1.68-6.03
		c0-0.98,0.14-1.96,0.42-3.09c1.12-4.77,5.05-8.28,9.82-8.28h0.98v-1.4H256.84z"/>
	<path id="XMLID_100_" class="st5" d="M245.48,241.27c0.7-3.37,2.95-6.17,5.75-7.57l0.42-0.56c0,0-12.48-10.24-28.2,2.1
		c0.7-0.28,6.87,4.91,7.57,5.47c4.21,2.95,8.56,4.21,13.75,3.23l0.42-0.7C245.2,242.53,245.34,241.83,245.48,241.27"/>
	<path id="XMLID_101_" class="st3" d="M245.48,241.27l0.56,0.14c0.7-3.23,2.81-5.75,5.47-7.15l0.28-0.28l0.42-0.56
		c0.14-0.28,0.14-0.7-0.14-0.84c0,0-5.05-4.07-12.76-4.07c-4.63,0-10.24,1.54-16.27,6.17c-0.28,0.14-0.28,0.56-0.14,0.84
		c0.14,0.28,0.56,0.42,0.84,0.28l-0.14-0.42v0.42h0.14l-0.14-0.42v0.42v-0.14v0.14l0,0v-0.14v0.14c0,0,0.28,0.14,0.42,0.28
		c0.84,0.56,2.38,1.68,3.79,2.81c0.7,0.56,1.26,1.12,1.82,1.54c0.56,0.42,0.84,0.7,1.12,0.84c3.37,2.38,6.87,3.65,10.8,3.65
		c1.12,0,2.24-0.14,3.51-0.28c0.14,0,0.28-0.14,0.42-0.28l0.42-0.7l0.14-0.28c0-0.56,0.14-1.26,0.28-1.82L245.48,241.27l-0.42,0.42
		l0,0c0.14,0.14,0.42,0.28,0.7,0.14c0.28,0,0.42-0.28,0.42-0.42L245.48,241.27l0.42-0.42l0,0c-0.14-0.14-0.42-0.28-0.56-0.14
		c-0.28,0-0.42,0.28-0.42,0.42c-0.14,0.7-0.28,1.4-0.28,1.96h0.7l-0.56-0.28l-0.42,0.7l0.56,0.28l-0.14-0.56
		c-1.12,0.14-2.24,0.28-3.23,0.28c-3.65,0-6.87-1.12-9.96-3.51c-0.14-0.14-0.7-0.56-1.26-1.12c-0.98-0.84-2.38-1.96-3.51-2.81
		c-0.56-0.42-1.12-0.84-1.68-1.12c-0.28-0.14-0.42-0.28-0.7-0.42c-0.28-0.14-0.42-0.14-0.7-0.14l-0.42,0.14l0.28,0.56l0.42,0.56
		c5.75-4.49,11.08-5.89,15.43-5.89c3.65,0,6.59,0.98,8.7,1.96c0.98,0.42,1.82,0.98,2.38,1.26c0.28,0.14,0.42,0.28,0.56,0.42
		l0.14,0.14l0,0l0.42-0.56l-0.56-0.28l-0.42,0.56l0.56,0.28l-0.28-0.56c-3.09,1.54-5.33,4.49-6.17,8L245.48,241.27l0.42-0.42
		L245.48,241.27z"/>
	<path id="XMLID_102_" class="st5" d="M260.35,232.85l0.14,0.28c3.37,1.26,5.89,4.21,6.73,8.14c0.14,0.98,0.28,1.82,0.28,2.67
		c4.91,0.7,9.12-0.42,13.19-3.37c0.84-0.56,6.87-5.89,7.57-5.47C272.69,222.9,260.35,232.85,260.35,232.85"/>
	<path id="XMLID_103_" class="st3" d="M260.35,232.85l-0.56,0.28l0.14,0.28l0.28,0.28c3.09,1.12,5.61,3.93,6.45,7.57l0,0
		c0.14,0.84,0.28,1.68,0.28,2.52c0,0.28,0.28,0.56,0.56,0.56c0.98,0.14,1.96,0.28,2.95,0.28c3.93,0,7.43-1.26,10.8-3.65
		c0.28-0.14,0.7-0.56,1.4-1.12c0.98-0.84,2.38-1.96,3.51-2.81c0.56-0.42,1.12-0.84,1.54-1.12c0.28-0.14,0.42-0.28,0.56-0.28h0.14
		l0,0v-0.14v0.14l0,0v-0.14v0.14v-0.42l-0.14,0.42h0.14v-0.42l-0.14,0.42c0.28,0.14,0.7,0,0.84-0.28s0.14-0.7-0.14-0.84
		c-6.03-4.63-11.64-6.17-16.27-6.17c-7.57,0-12.62,3.93-12.62,4.07L260.35,232.85v-0.7l0,0c-0.28,0-0.42,0.14-0.56,0.28
		c-0.14,0.14-0.14,0.42,0,0.7L260.35,232.85v0.7l0,0l0.42-0.14l0,0c0.56-0.42,5.05-3.79,11.78-3.79c4.35,0,9.68,1.4,15.43,5.89
		l0.42-0.56l0.28-0.56l-0.42-0.14c-0.42,0-0.56,0.14-0.84,0.28c-0.98,0.56-2.52,1.68-3.93,2.95c-0.7,0.56-1.4,1.12-1.96,1.54
		c-0.56,0.42-0.98,0.84-1.12,0.84c-3.09,2.24-6.31,3.37-9.96,3.37c-0.84,0-1.82-0.14-2.67-0.28l-0.14,0.7h0.7
		c0-0.84-0.14-1.82-0.42-2.67l0,0c-0.84-4.07-3.65-7.15-7.15-8.56l-0.28,0.56l0.56-0.28l-0.14-0.28L260.35,232.85v0.7V232.85z"/>
	<path id="XMLID_104_" class="st5" d="M255.72,160.89c0,0-32.26,49.24-3.93,71.12h7.86C287.98,210.27,255.72,160.89,255.72,160.89
		L255.72,160.89z"/>
	<path id="XMLID_105_" class="st3" d="M255.16,160.61c0,0-3.93,6.03-7.86,14.73c-3.93,8.7-7.86,20.2-7.86,31.28
		c0,9.68,3.09,19.22,11.92,25.95l0.42,0.14h7.86l0.42-0.14c8.84-6.73,11.92-16.27,11.92-25.95c0-11.08-3.93-22.58-7.86-31.28
		c-3.93-8.7-7.86-14.73-7.86-14.73c-0.14-0.28-0.56-0.42-0.84-0.14c-0.28,0.14-0.42,0.56-0.14,0.84c0,0,0.28,0.42,0.7,0.98
		c2.95,4.77,14.87,25.39,14.87,44.19c0,9.4-2.95,18.38-11.36,24.97l0.42,0.56v-0.7h-8.14v0.7l0.42-0.56
		c-8.42-6.45-11.36-15.43-11.36-24.97c0-10.8,3.93-22.16,7.72-30.72c1.96-4.35,3.93-8,5.33-10.52c0.7-1.26,1.26-2.24,1.82-2.95
		c0.42-0.7,0.7-0.98,0.7-0.98c0.14-0.28,0.14-0.7-0.14-0.84C255.72,160.19,255.44,160.33,255.16,160.61L255.16,160.61z"/>
	<path id="XMLID_106_" class="st5" d="M248.71,173.8l-13.61-11.92c1.26,1.12,0.7,8,0.7,9.54c0,3.79-0.14,7.57-0.56,11.36
		c-0.56,5.05-1.54,9.82-2.38,14.73c-1.26,7.72-0.28,15.99,4.07,22.72c3.23,4.91,9.12,9.26,14.45,11.5
		C232.71,217,241.27,189.93,248.71,173.8"/>
	<path id="XMLID_107_" class="st3" d="M248.71,173.8l0.42-0.42l-13.61-11.92c-0.28-0.28-0.7-0.14-0.84,0c-0.28,0.28-0.14,0.7,0,0.84
		c0,0,0.14,0.14,0.28,0.42c0.28,0.84,0.42,2.67,0.42,4.35c0,1.68-0.14,3.37-0.14,4.21v0.14l0,0c0,0.42,0,0.84,0,1.26
		c0,3.37-0.14,6.73-0.56,10.1c-0.42,4.91-1.54,9.82-2.38,14.73c-0.28,2.1-0.56,4.21-0.56,6.31c0,5.89,1.4,11.78,4.63,16.83
		c3.23,5.05,9.26,9.4,14.73,11.78c0.28,0.14,0.7,0,0.84-0.28c0.14-0.28,0.14-0.56-0.14-0.84c-8.28-6.45-11.08-15.43-11.08-24.69
		c0-11.5,4.35-23.57,8.56-32.4c0.14-0.28,0-0.56-0.14-0.7l0,0L248.71,173.8l0.42-0.42L248.71,173.8l-0.42,0.56l0,0L248.71,173.8
		l-0.56-0.28c-4.21,8.84-8.56,21.18-8.56,32.96c0,9.54,2.95,18.94,11.64,25.67l0.42-0.56l0.28-0.56
		c-5.33-2.24-11.08-6.45-14.17-11.22c-3.09-4.91-4.35-10.38-4.35-16.13c0-2.1,0.14-4.07,0.42-6.17c0.84-4.91,1.82-9.82,2.38-14.73
		c0.28-3.37,0.56-6.73,0.56-10.24c0-0.42,0-0.84,0-1.26l0,0v-0.14c0-0.7,0.14-2.52,0.14-4.21c0-1.12,0-2.38-0.14-3.37
		c0-0.56-0.14-0.98-0.28-1.4c-0.14-0.42-0.28-0.7-0.56-0.98c-0.14-0.14-0.28-0.14-0.42-0.14c-0.14,0-0.28,0.14-0.42,0.28
		c-0.14,0.14-0.14,0.28-0.14,0.42s0.14,0.28,0.28,0.42l13.61,11.92l0,0L248.71,173.8z"/>
	<path id="XMLID_108_" class="st5" d="M278.58,197.65c-0.84-4.91-1.82-9.82-2.38-14.73c-0.42-3.79-0.56-7.57-0.56-11.36
		c0-1.54-0.42-8.56,0.7-9.54l-13.61,12.06c7.57,16.13,15.99,43.2-2.95,57.93c5.47-2.24,11.64-6.59,14.73-11.64
		C278.86,213.5,279.85,205.36,278.58,197.65"/>
	<path id="XMLID_109_" class="st3" d="M278.58,197.65l0.7-0.14c-0.84-4.91-1.82-9.82-2.38-14.73c-0.28-3.37-0.56-6.59-0.56-9.96
		c0-0.42,0-0.84,0-1.26l0,0v-0.14c0-0.84-0.14-2.52-0.14-4.21c0-1.12,0-2.24,0.14-3.23c0-0.42,0.14-0.84,0.28-1.12
		c0.14-0.28,0.14-0.42,0.28-0.42c0.28-0.28,0.28-0.7,0-0.84c-0.28-0.28-0.7-0.28-0.84,0l-13.61,12.06c-0.28,0.14-0.28,0.56-0.14,0.7
		c4.07,8.84,8.42,20.9,8.42,32.26c0,9.4-2.95,18.38-11.22,24.83c-0.28,0.14-0.28,0.56-0.14,0.84c0.14,0.28,0.56,0.42,0.84,0.28
		c5.61-2.24,11.78-6.73,15.15-11.92c3.23-5.05,4.63-10.94,4.63-16.83c0-2.1-0.14-4.21-0.56-6.31L278.58,197.65l-0.7,0.14
		c0.28,1.96,0.42,4.07,0.42,6.17c0,5.75-1.26,11.22-4.35,16.13c-3.09,4.91-9.12,9.26-14.45,11.36l0.28,0.56l0.42,0.56
		c8.7-6.73,11.78-16.13,11.78-25.81c0-11.78-4.49-23.99-8.56-32.82l-0.56,0.28l0.42,0.42l13.61-12.06c0.14-0.14,0.14-0.28,0.28-0.42
		c0-0.14,0-0.28-0.14-0.42c-0.14-0.14-0.28-0.14-0.42-0.28c-0.14,0-0.28,0-0.42,0.14c-0.28,0.28-0.42,0.7-0.56,0.98
		c-0.42,1.12-0.42,2.95-0.42,4.63c0,1.82,0.14,3.51,0.14,4.21v0.14l0,0c0,0.42,0,0.84,0,1.4c0,3.37,0.14,6.73,0.56,10.1
		c0.56,5.05,1.54,9.82,2.38,14.73L278.58,197.65z"/>
	<path id="XMLID_110_" class="st5" d="M261.75,231.03l0.7,0.56c3.23-1.68,9.68-4.07,17.81-1.12l0.56-0.14c0,0,2.81-7.72,7.57-7.72
		c0,0-6.31-3.37-14.73-1.12C270.73,225.42,266.24,228.93,261.75,231.03"/>
	<path id="XMLID_111_" class="st3" d="M261.75,231.03l-0.42,0.56l0.7,0.56c0.14,0.14,0.42,0.14,0.7,0c1.96-1.12,5.47-2.52,9.82-2.52
		c2.24,0,4.77,0.42,7.57,1.4h0.42l0.56-0.14c0.14,0,0.28-0.14,0.42-0.42c0,0,0-0.14,0.14-0.28c0.28-0.7,1.12-2.52,2.24-4.07
		c0.56-0.84,1.26-1.54,2.1-2.1c0.84-0.56,1.54-0.84,2.52-0.84c0.28,0,0.56-0.14,0.56-0.42c0.14-0.28,0-0.56-0.28-0.7
		c0,0-3.65-1.96-9.12-1.96c-1.82,0-3.93,0.28-6.03,0.84l-0.28,0.28c-2.81,3.79-7.29,7.15-11.64,9.26L261.75,231.03l0.42-0.42l0,0
		L261.75,231.03l-0.42,0.56L261.75,231.03l-0.42,0.42l0,0c0.14,0.14,0.42,0.28,0.7,0.14c4.49-2.24,9.12-5.61,12.2-9.68l-0.56-0.42
		l0.14,0.56c2.1-0.56,3.93-0.7,5.75-0.7c2.52,0,4.77,0.42,6.31,0.98c0.7,0.28,1.4,0.42,1.68,0.56c0.14,0.14,0.42,0.14,0.42,0.14
		h0.14l0,0l0.28-0.56v-0.7c-1.4,0-2.52,0.56-3.65,1.26c-3.09,2.38-4.63,6.73-4.63,6.73l0.56,0.28l-0.14-0.56l-0.56,0.14l0.14,0.56
		l0.28-0.56c-2.95-1.12-5.61-1.4-8-1.4c-4.63,0-8.28,1.4-10.38,2.67l0.28,0.56l0.42-0.56l-0.7-0.56c-0.28-0.14-0.7-0.14-0.84,0.14
		c-0.28,0.28-0.14,0.7,0,0.84L261.75,231.03z"/>
	<path id="XMLID_112_" class="st5" d="M249.13,231.45l0.42-0.14l-0.14-0.56c-4.35-2.1-8.7-5.47-11.5-9.26l0,0
		c-8.42-2.24-14.87,1.12-14.87,1.12c4.77,0,7.57,7.72,7.57,7.72l0.56,0.28C239.31,227.52,245.76,229.77,249.13,231.45"/>
	<path id="XMLID_113_" class="st3" d="M249.13,231.45l0.28,0.56l0.42-0.14c0.28-0.14,0.42-0.42,0.28-0.84l-0.14-0.56l-0.28-0.42
		c-4.21-2.1-8.56-5.33-11.22-9.12c-0.14-0.14-0.28-0.28-0.42-0.28l0,0v0.7l0.14-0.56c-2.24-0.56-4.21-0.84-6.17-0.84
		c-5.47,0-9.12,1.96-9.12,1.96c-0.28,0.14-0.42,0.42-0.28,0.7c0.14,0.28,0.28,0.42,0.56,0.42c0.98,0,1.96,0.42,2.81,1.12
		c1.26,0.98,2.38,2.52,3.09,3.79c0.42,0.7,0.7,1.26,0.84,1.68c0.14,0.28,0.14,0.42,0.14,0.56v0.14c0,0.14,0.14,0.28,0.28,0.42
		l0.56,0.28c0.14,0.14,0.28,0.14,0.56,0c2.81-1.12,5.47-1.4,7.86-1.4c4.21,0,7.57,1.26,9.54,2.38L249.13,231.45v-0.7l0,0V231.45
		l0.28,0.56L249.13,231.45v0.7l0,0c0.28,0,0.56-0.28,0.56-0.56c0-0.28-0.14-0.56-0.28-0.7c-2.24-1.12-5.75-2.52-10.24-2.52
		c-2.52,0-5.33,0.42-8.28,1.54l0.28,0.56l0.28-0.56l-0.56-0.28l-0.28,0.56l0.56-0.28c0,0-0.7-1.96-2.1-3.93
		c-0.7-0.98-1.54-1.96-2.52-2.81c-0.98-0.84-2.24-1.26-3.65-1.26v0.7l0.28,0.56l0,0c0.42-0.14,3.65-1.82,8.56-1.82
		c1.68,0,3.65,0.28,5.75,0.84h0.14l0,0v-0.7l-0.56,0.42C240.29,225.84,244.78,229.21,249.13,231.45l0.28-0.7l-0.56,0.28l0.14,0.56
		l0.56-0.28l-0.28-0.56l-0.42,0.14c-0.28,0.14-0.42,0.42-0.42,0.7c0,0.28,0.28,0.56,0.7,0.56V231.45z"/>
	<path id="XMLID_114_" class="st5" d="M248.57,174.08c1.4-3.09,2.81-5.61,3.93-7.72l-5.61-7.72l-4.35,9.54v0.42l6.03,5.33V174.08"/>
	<path id="XMLID_115_" class="st3" d="M248.57,174.08l0.56,0.28c1.4-2.95,2.81-5.61,3.93-7.72l0.14-0.42l-6.45-8.98l-4.91,10.66
		v0.56v0.28l6.31,5.47l0.42-0.42l-0.56-0.28l-0.14,0.14l-0.28,0.98h0.98h0.42l0.14-0.42L248.57,174.08v-0.7l0,0V174.08l0.56,0.28
		l0.14-0.14l0.14-0.42l-6.17-5.47v-0.14h-0.7l0.56,0.28l3.93-8.56l4.91,6.87l0.56-0.42l-0.56-0.28c-1.12,2.1-2.52,4.77-3.93,7.86
		L248.57,174.08v-0.7V174.08z"/>
	<path id="XMLID_116_" class="st5" d="M262.73,173.94l6.73-5.89l-4.35-9.54l-5.61,7.86v0.98c1.12,1.96,2.24,4.35,3.51,6.87
		L262.73,173.94"/>
	<path id="XMLID_117_" class="st3" d="M262.73,173.94l0.42,0.42l7.01-6.17l-5.05-10.94l-6.31,8.98v1.12v0.14l0.14,0.14
		c0.98,1.96,2.24,4.21,3.51,6.87l1.12-0.56l-0.14-0.28L262.73,173.94h0.7l0,0H262.73l0.42,0.42L262.73,173.94h-0.7l0,0v0.14
		l0.14,0.42l1.12-0.56c-1.26-2.67-2.38-4.91-3.51-6.87l-0.56,0.28h0.7v-0.7l4.91-6.73l3.65,8.14l-6.59,5.75v0.28h0.84V173.94z"/>
</g>
</svg>
